<svg width="145" height="145" viewBox="0 0 145 145" fill="none" xmlns="http://www.w3.org/2000/svg">
<path d="M75.1943 75.3923L75.5463 75.0403C75.7746 74.812 76.0219 74.5647 76.274 74.3316L76.7687 73.856L78.2384 72.4053L80.2552 70.4409L81.9722 68.7428L83.5847 67.1494L85.2684 65.4847L86.8095 63.9626L88.9689 61.8365C89.378 61.4274 89.8013 61.0422 90.2246 60.6522C91.0047 59.9434 91.818 59.2538 92.6314 58.5831C93.3924 57.979 94.1725 57.3988 94.9668 56.8327C96.0798 56.0384 97.2308 55.3107 98.4009 54.602C99.552 53.9313 100.736 53.294 101.94 52.6899C103.072 52.1429 104.242 51.6292 105.426 51.1678C106.083 50.9015 106.753 50.6732 107.429 50.4401C107.766 50.3355 108.099 50.2118 108.456 50.1024C105.464 38.3303 99.9943 27.3572 92.4031 17.8872C90.9333 16.0654 88.7026 15 86.3671 15H24.3244C23.687 15 23.1543 15.5137 23.1543 16.1701C23.1543 16.5411 23.3303 16.8788 23.6299 17.1071C44.8008 32.6321 62.3615 52.5805 75.0516 75.5588L75.1943 75.4018V75.3923Z" fill="#00D6B9"/>
<path d="M50.537 130C82.5763 130 110.492 112.316 125.042 86.1888C125.555 85.2661 126.05 84.3481 126.53 83.4111C125.803 84.8095 124.989 86.1555 124.086 87.4302C123.767 87.8726 123.448 88.3149 123.11 88.7573C122.687 89.3043 122.259 89.818 121.817 90.3317C121.465 90.7407 121.108 91.126 120.737 91.516C119.995 92.2961 119.215 93.0381 118.402 93.7278C117.94 94.1178 117.498 94.4888 117.022 94.8408C116.475 95.2641 115.909 95.6731 115.338 96.0441C114.987 96.2915 114.611 96.5198 114.24 96.7528C113.869 96.9811 113.479 97.2142 113.07 97.4425C112.275 97.8849 111.443 98.3082 110.611 98.6839C109.883 99.0026 109.141 99.3023 108.399 99.5877C107.586 99.8873 106.772 100.154 105.921 100.382C104.665 100.734 103.409 101 102.116 101.195C101.193 101.338 100.242 101.443 99.2999 101.514C98.3105 101.585 97.2974 101.604 96.289 101.604C95.176 101.585 94.0583 101.514 92.9262 101.39C92.0939 101.3 91.2615 101.176 90.4291 101.038C89.7014 100.915 88.9784 100.753 88.2507 100.577C87.8607 100.487 87.4896 100.382 87.0996 100.277C86.0389 99.992 84.9735 99.6923 83.9128 99.3927C83.3801 99.2357 82.8521 99.093 82.3384 98.9313C81.5441 98.703 80.764 98.4556 79.984 98.2035C79.3466 98.0085 78.7093 97.7945 78.0719 97.5852C77.4678 97.3902 76.8495 97.1952 76.2502 96.9811L75.0088 96.5578C74.5141 96.3818 74.0004 96.2058 73.5057 96.0251L72.4451 95.6351C71.7364 95.3877 71.0277 95.1214 70.338 94.855C69.9289 94.6981 69.5246 94.5554 69.1156 94.3936C68.5686 94.1796 68.0359 93.9703 67.4889 93.7563C66.9228 93.528 66.3378 93.2949 65.7718 93.0666L64.6588 92.6052L63.2794 92.0392L62.2188 91.5969L61.12 91.1212L60.164 90.6979L59.2983 90.3079L58.4136 89.8988L57.5099 89.4755L56.3589 88.9428L55.1555 88.3768C54.7321 88.1627 54.3041 87.9677 53.8807 87.7584L52.8011 87.2257C33.7563 77.7224 16.5666 64.9038 2.01672 49.3646C1.57437 48.9032 0.846628 48.8699 0.370986 49.3123C0.142678 49.5263 0 49.845 0 50.1637L0.0332984 104.915V109.357C0.0332984 111.94 1.30802 114.347 3.44841 115.783C17.38 125.096 33.7706 130.034 50.5322 129.995" fill="#3370FF"/>
<path d="M144.69 52.8239C133.874 47.53 121.503 46.398 109.907 49.6561C109.412 49.7988 108.932 49.9415 108.456 50.0794C108.118 50.1841 107.785 50.2935 107.429 50.4171C106.758 50.6454 106.083 50.8928 105.426 51.1449C104.242 51.6062 103.091 52.1199 101.94 52.6669C100.736 53.252 99.552 53.8893 98.4009 54.56C97.2166 55.2497 96.0798 55.9917 94.9668 56.7907C94.1725 57.3568 93.3924 57.9418 92.6314 58.5411C91.799 59.2118 91.0047 59.8872 90.2246 60.6101C89.8013 61.0002 89.3922 61.3902 88.9689 61.7945L86.8095 63.9206L85.2684 65.4427L83.5847 67.1074L81.9722 68.7008L80.2552 70.3989L78.2527 72.3823L76.783 73.833L76.2883 74.3086C76.06 74.5369 75.8127 74.7843 75.5606 75.0173L75.2086 75.3693L74.6616 75.883C74.4476 76.078 74.2526 76.254 74.0433 76.449C68.7161 81.3529 62.7658 85.5481 56.3779 88.9632L57.529 89.4959L58.4327 89.9192L59.3174 90.3283L60.1831 90.7183L61.1391 91.1416L62.2378 91.6173L63.2985 92.0596L64.6779 92.6256L65.7909 93.087C66.3569 93.3153 66.942 93.5484 67.508 93.7767C68.0407 93.9907 68.5877 94.2 69.1347 94.414C69.5437 94.571 69.948 94.7137 70.3571 94.8754C71.0658 95.1418 71.7745 95.3891 72.4642 95.6555L73.5248 96.0455C74.0195 96.2215 74.5142 96.3975 75.0279 96.5782L76.2693 97.0015C76.8734 97.1965 77.4727 97.4106 78.091 97.6056C78.7284 97.8196 79.3657 98.0146 80.0031 98.2239C80.7831 98.4713 81.5775 98.6996 82.3575 98.9517C82.8902 99.1086 83.4182 99.2703 83.9319 99.413C84.9926 99.7127 86.058 100.017 87.1187 100.298C87.5088 100.402 87.8797 100.493 88.2697 100.597C88.9975 100.773 89.7205 100.916 90.4482 101.059C91.2806 101.202 92.113 101.325 92.9453 101.411C94.0774 101.534 95.1951 101.606 96.3081 101.625C97.3165 101.644 98.3248 101.606 99.3189 101.534C100.275 101.463 101.212 101.358 102.135 101.216C103.409 101.021 104.684 100.74 105.94 100.402C106.772 100.174 107.605 99.9077 108.418 99.608C109.16 99.3417 109.907 99.042 110.63 98.7043C111.462 98.3333 112.294 97.91 113.089 97.4629C113.479 97.2489 113.869 97.0206 114.259 96.7732C114.649 96.5449 115.001 96.2976 115.358 96.0645C115.924 95.6745 116.49 95.2845 117.041 94.8611C117.517 94.5092 117.978 94.1334 118.421 93.7481C119.215 93.0584 119.995 92.3164 120.742 91.5364C121.113 91.1464 121.47 90.7563 121.822 90.3521C122.264 89.8384 122.706 89.3056 123.115 88.7777C123.453 88.3544 123.772 87.912 124.09 87.4506C124.975 86.1759 125.788 84.8489 126.516 83.4695L127.349 81.8238L134.749 67.0789L134.84 66.9029C137.285 61.628 140.609 56.8859 144.7 52.8286L144.69 52.8239Z" fill="#133C9A"/>
</svg>

